<svg width="71" height="14" viewBox="0 0 71 14" fill="none" xmlns="http://www.w3.org/2000/svg">
<path d="M34.5007 10.51H36.4149C36.1333 11.6334 35.5985 12.485 34.8072 13.0767C34.0159 13.6683 33.0213 14 31.8201 14C30.3651 14 29.2301 13.505 28.4148 12.515C27.5985 11.5517 27.1903 10.1745 27.1903 8.3834C27.1903 6.67175 27.5852 5.3301 28.3765 4.37011C29.1928 3.37901 30.3274 2.88402 31.7801 2.88513C33.3128 2.88513 34.4995 3.36568 35.3403 4.32678C35.8071 4.93463 36.1445 5.63174 36.3316 6.37509H33.6527C33.5563 6.15618 33.4271 5.95329 33.2695 5.77343C32.9363 5.40177 32.4682 5.21177 31.8534 5.21177C31.5991 5.20567 31.3463 5.2526 31.1111 5.34959C30.8759 5.44657 30.6635 5.59148 30.4873 5.7751C30.0297 6.31064 29.8004 7.19341 29.7993 8.4234C29.7993 9.65172 30.0292 10.5234 30.4873 11.0284C30.8205 11.4567 31.3203 11.675 31.9867 11.675C32.375 11.6863 32.7587 11.5887 33.0946 11.3934C33.1743 11.3617 33.2464 11.3134 33.3062 11.2517C33.3695 11.1834 33.4394 11.1117 33.5161 11.0284C33.604 10.9105 33.7058 10.8036 33.8193 10.71C34.0179 10.563 34.2626 10.492 34.509 10.51H34.5007ZM15.022 13.8V2.44847H18.9237V1.44848C18.9279 1.26006 18.8945 1.07271 18.8255 0.897317C18.7566 0.721925 18.6535 0.561992 18.5222 0.426823C18.3986 0.291524 18.248 0.183651 18.0801 0.110163C17.9123 0.036674 17.7309 -0.000798883 17.5477 0.000161175H8.44141V2.44847H12.3065V13.8H15.022ZM43.8102 6.13342C43.6433 5.87102 43.4114 5.65633 43.1369 5.51029C42.8625 5.36425 42.5549 5.29183 42.2441 5.3001C41.9245 5.28431 41.6061 5.34951 41.3183 5.48965C41.0306 5.62978 40.7829 5.84033 40.5981 6.10176C40.2133 6.63675 40.0234 7.37174 40.0234 8.3084V13.8083H37.4228V0.000161175H38.7206C38.8948 -0.00265147 39.0677 0.0313767 39.2279 0.100019C39.3881 0.168661 39.532 0.27037 39.6502 0.39849C39.7741 0.526318 39.8716 0.677357 39.9371 0.842949C40.0026 1.00854 40.0347 1.18543 40.0317 1.36348V4.53011C40.2326 4.15424 40.51 3.82465 40.846 3.56257C41.182 3.30049 41.5692 3.11173 41.9826 3.00846C42.7814 2.79112 43.6302 2.84984 44.3916 3.17512C45.1203 3.50789 45.7434 4.03491 46.1925 4.69844C46.6734 5.39399 46.9144 6.35731 46.9155 7.58841V13.8H44.3466V8.2634C44.3482 7.894 44.3158 7.52523 44.25 7.16175C44.1737 6.79483 44.026 6.44654 43.8152 6.13676L43.8102 6.13342ZM24.2482 10.51H26.1558C25.8742 11.6334 25.3394 12.485 24.5481 13.0767C23.7568 13.6683 22.7688 14 21.5693 14C20.1133 14 18.9821 13.5 18.1641 12.515C17.3488 11.5517 16.9412 10.1745 16.9412 8.3834C16.9412 6.67175 17.3361 5.3301 18.1257 4.37011C18.9421 3.37901 20.0772 2.88402 21.531 2.88513C23.0593 2.88624 24.2454 3.36901 25.0895 4.33344C25.9114 5.3201 26.3224 6.6962 26.3224 8.46173V8.90339C26.3279 8.999 26.3143 9.09475 26.2824 9.18506H19.6584C19.6834 10.0184 19.8717 10.6284 20.2315 11.0284C20.5647 11.4567 21.0645 11.675 21.7309 11.675C22.1143 11.6843 22.4926 11.5867 22.8238 11.3934C22.9047 11.3629 22.9776 11.3145 23.0371 11.2517C23.1004 11.1834 23.1703 11.1117 23.247 11.0284C23.3153 10.9001 23.4143 10.7907 23.5352 10.71C23.7417 10.565 23.9914 10.4945 24.2432 10.51H24.2482ZM19.6584 7.37841H23.5585C23.5069 6.65675 23.3303 6.12342 23.0221 5.7751C22.7139 5.42677 22.2207 5.21343 21.6043 5.21343C21.349 5.20618 21.095 5.2524 20.8586 5.34913C20.6222 5.44585 20.4086 5.59094 20.2315 5.7751C19.8717 6.15176 19.6834 6.68675 19.6584 7.37841Z" fill="#DADADA"/>
<path d="M60.3768 13.8008V8.62255C60.3517 7.72823 60.5017 6.83765 60.8183 6.00091C61.0748 5.34287 61.4884 4.75755 62.0228 4.29593C62.5206 3.88477 63.1006 3.58475 63.7237 3.41594C64.3769 3.22538 65.0542 3.12995 65.7346 3.13261H66.1144V5.97591H65.2348C64.4967 5.97591 63.947 6.16591 63.5888 6.53924C63.2306 6.91257 63.054 7.49923 63.054 8.30422V13.8042L60.3768 13.8008ZM5.30948 0.000979142H7.01044V2.44428H4.23825V1.0743C4.23825 0.357642 4.59588 -0.000131956 5.31114 0.000979142H5.30948ZM0 10.9192H2.81384V13.7975H0V10.9192ZM1.07456 3.62094H2.81384V6.5709H0V4.73759C0 3.9876 0.358186 3.61316 1.07456 3.61427V3.62094ZM4.23992 3.61427H7.01544V13.7975H4.23825L4.23992 3.61427ZM70.9991 13.8008C70.0873 13.8531 69.173 13.8381 68.2635 13.7558C67.2806 13.6792 66.7897 13.0242 66.7908 11.7908V0.000979142H68.1669C68.3331 0.00247454 68.4973 0.0386759 68.6487 0.107266C68.8002 0.175857 68.9357 0.275326 69.0465 0.399308C69.1705 0.527136 69.2679 0.678174 69.3334 0.843767C69.3989 1.00936 69.431 1.18625 69.428 1.3643V3.16761H70.9991V4.60093C71.0059 4.78209 70.9754 4.96273 70.9095 5.13161C70.8436 5.30049 70.7436 5.454 70.6159 5.58258C70.4966 5.7056 70.3536 5.80304 70.1955 5.86894C70.0374 5.93484 69.8675 5.96784 69.6963 5.96591H69.428V10.7392C69.428 11.1942 69.6829 11.4242 70.1961 11.4242C70.8391 11.4242 70.9991 11.6792 70.9991 12.2575V13.8008ZM53.1314 0.000979142H55.2755L60.0536 13.8008H57.1881L56.3101 10.9525H51.1822L50.3392 13.8008H47.4704L51.832 0.919302C52.0602 0.307642 52.4984 0.000979142 53.1314 0.000979142ZM53.7428 2.76595L51.9103 8.62255H55.5754L53.7428 2.76595Z" fill="#DADADA"/>
</svg>
